#!OML:ASF F:\VICON\USERDATA\INSTALL\rory3\rory3.ASF
:FULLY-SPECIFIED
:DEGREES
28
root -0.34378253247647117 17.737739922971087 -0.29432037408864886 4.934457818142551 1.3092854217518615 1.2068398353523206
lfemur 2.1109008922690453 -1.0950773819313944 -26.67701571719492
ltibia 34.97147533468829
lfoot -5.7897697220779225 -4.844911780668573
ltoes -26.97454051856517
rfemur -47.45269835427421 -2.101456671681881 21.559504961852795
rtibia 93.59501695540487
rfoot 0.388670274775619 -4.5262157049258915
rtoes 0.11235538590925298
lowerback 16.17252516690285 -0.7671992356854761 -3.2461684808439024
upperback -1.0260464004195438 -1.5111957008554104 0.752089913117465
thorax -10.21790907875124 -0.5368729851347247 3.0116238876720636
lowerneck -20.162447136696258 -3.518375873298205 -1.6796637357517745
upperneck 12.75193664938572 -5.000441624935378 3.58306976695026
head 7.3743534866183165 -2.083394901752321 0.8660091589510475
lclavicle -1.5271061770609155e-15 -1.2484132428450122e-15
lhumerus -33.206981009812246 -15.076059800851235 95.59395054286237
lradius 115.21224933959074
lwrist 38.17433167090718
lhand -24.306134425098673 2.9642560789418315
lfingers 7.125020000000055
lthumb 2.180750926873107 32.84075010252846
rclavicle -1.5271061770609155e-15 -1.2484132428450122e-15
rhumerus -60.862320408110044 9.113128344151004 -99.25319978959523
rradius 107.46540477334567
rwrist -17.578963500164377
rhand -19.55148758036143 34.80513972142339
rfingers 7.125020000000055
rthumb 6.771503365455613 9.73794472185168
29
root -0.3266830081657676 17.99124385326252 0.6172495958751956 5.2489376028350865 0.1273582102971461 0.6462387173798714
lfemur 5.757947523665159 -0.7856975542378026 -26.270031440528324
ltibia 30.470393788256395
lfoot 3.4631536411472097 -8.227140487048473
ltoes -28.706893354306853
rfemur -47.411533908133016 -0.4480360937230641 22.73421550425094
rtibia 83.59622371000467
rfoot -0.5378322845490215 -3.192828095528923
rtoes -3.1143514130769443
lowerback 15.414078770266165 -0.9272294302346397 -2.810347542676668
upperback -1.2082243918951328 -1.616309186878924 1.1301980801455365
thorax -10.014590708298028 -0.5964217336913745 3.1764856167210618
lowerneck -20.048113198582897 -3.2630958330680695 -1.7490856725156596
upperneck 13.314270802555976 -4.608548604714621 3.3348469070195614
head 7.519377730795117 -1.920008243808122 0.8375834040306219
lclavicle -1.4472603799023091e-15 -1.1865884058066386e-15
lhumerus -33.36798868540997 -14.448443405188783 95.01671740812128
lradius 115.94853763221312
lwrist 38.511809593494476
lhand -24.26799573514194 2.7419477664153185
lfingers 7.125020000000055
lthumb 2.2175086946613707 32.6124539038222
rclavicle -1.4472603799023091e-15 -1.1865884058066386e-15
rhumerus -62.26720327044677 8.899159299546245 -98.74630524316565
rradius 108.0597643988854
rwrist -17.69353055732453
rhand -19.529184180846386 34.746089229884205
rfingers 7.125020000000055
rthumb 6.793295415546599 9.794940352303417
30
root -0.3039263857890176 18.23137017940579 2.148531301088747 5.715574990885733 -1.1728213043683575 0.26713184159913617
lfemur 9.129463121714117 -0.7349969165975955 -26.047342753528007
ltibia 26.736485676993283
lfoot 12.791598946919306 -11.195806495815908
ltoes -27.554622153605365
rfemur -46.93312848708469 1.072879003695662 23.656884072844285
rtibia 73.12341171158523
rfoot -1.1157147499241056 -1.7528278801346522
rtoes -7.4560279969419465
lowerback 14.725476822677047 -1.0232991487079994 -2.3177398665876483
upperback -1.4266526950641036 -1.6310046635076016 1.4285396440214408
thorax -9.873841425772067 -0.6170524602981516 3.2403736271868664
lowerneck -20.007039847124496 -3.055121561137517 -1.8473127412530772
upperneck 13.83918169728048 -4.268472693024098 3.1405068547003507
head 7.673379121670769 -1.7821082601525506 0.8231904542362762
lclavicle -1.1828586720067599e-15 -9.818613954534993e-16
lhumerus -33.78048825278007 -14.387963763697789 94.68882223440484
lradius 117.24607826115596
lwrist 38.587466064069176
lhand -24.096734084961128 2.362411195038865
lfingers 7.125020000000056
lthumb 2.382887332335394 32.231206310063186
rclavicle -1.1828586720067599e-15 -9.818613954534993e-16
rhumerus -63.517882591148236 9.106698025007248 -98.33781876926422
rradius 109.3995462536853
rwrist -17.45166528902868
rhand -19.56413647277538 35.03117732708509
rfingers 7.125020000000056
rthumb 6.759676910233033 9.925404521684941
31
root -0.2987335499456389 18.43484502882339 2.918326306106618 6.060409369589416 -2.2853598963569968 0.05268944882817639
lfemur 11.583026448463137 -1.5102804497019748 -26.297078768581237
ltibia 23.684599778645122
lfoot 20.9784355516793 -13.784892814222019
ltoes -24.318775048000816
rfemur -46.09912594184408 2.0430348937692564 24.19241514721159
rtibia 61.25266500401818
rfoot -0.8441157349007791 -0.48245806827213933
rtoes -11.25201140155352
lowerback 14.06671121216879 -1.1538479222864244 -2.043432978546991
upperback -1.629926910179274 -1.7361698594511328 1.5850681818087156
thorax -9.773163926471621 -0.6755014506160985 3.2257503893119446
lowerneck -20.071984619190484 -2.886572770221446 -1.8888573163634927
upperneck 14.126270043129836 -3.998219132093403 2.9266111863975715
head 7.770334361731088 -1.6704229185999178 0.7869611799128224
lclavicle -1.3290548078420048e-15 -1.0950614837873035e-15
lhumerus -34.41414110937096 -14.76998908160369 94.14519591203684
lradius 117.52971042072198
lwrist 37.76781449586703
lhand -23.947568148549692 1.8268101136144406
lfingers 7.125020000000056
lthumb 2.527000039167768 31.70142383635806
rclavicle -1.3290548078420048e-15 -1.0950614837873035e-15
rhumerus -64.98282282012013 8.211394976199662 -97.81525134929825
rradius 109.61458938318795
rwrist -17.04973423408204
rhand -19.637075600290782 34.598686203739454
rfingers 7.125020000000056
rthumb 6.689289655413229 9.997795639839609
32
root -0.2610659816055453 18.58468361916792 4.396553524039063 6.339851901406574 -2.874968470351711 0.22789935498628333
lfemur 13.739435624914922 -2.6798466711516715 -26.882124342368737
ltibia 23.086113515672686
lfoot 26.98189203130363 -15.835659106835514
ltoes -20.33374556570653
rfemur -44.30539618282512 2.471881489599183 24.339294583706582
rtibia 49.98096390139428
rfoot 0.3120544163181749 0.4046529785284969
rtoes -14.632739741092687
lowerback 13.574574361494804 -1.3107799529185384 -1.8902980545004404
upperback -1.7619871477548055 -1.9164141351035888 1.6447811852329042
thorax -9.61128464605945 -0.76720304992824 3.2835035600902502
lowerneck -20.13005970383619 -2.818166848128466 -1.9195283931038685
upperneck 14.445598716069375 -3.868733555107016 2.8220435630958542
head 7.886383646415798 -1.623362143197923 0.7674187928753111
lclavicle -1.0328727067225889e-15 -8.657268261547931e-16
lhumerus -34.70469098046402 -15.066442632792215 93.75710473589666
lradius 118.03553783651665
lwrist 37.11204906937777
lhand -23.89328067939202 1.4347132277155605
lfingers 7.125020000000057
lthumb 2.579540538794662 31.319565044990586
rclavicle -1.0328727067225889e-15 -8.657268261547931e-16
rhumerus -65.92463278153842 7.6712097139259345 -97.16025845316139
rradius 110.86765190352249
rwrist -16.411131493665206
rhand -19.703604022694382 34.17498807510514
rfingers 7.125020000000057
rthumb 6.625128660129145 10.153047592710957
33
root -0.24107491158137911 18.681905896172466 5.320516839493631 6.479200319440292 -3.1263716791980127 0.4983205818618113
lfemur 14.587785632753835 -4.047801935867036 -27.766097575736467
ltibia 24.14955688140459
lfoot 30.116734706719658 -17.590012117132837
ltoes -17.79828917233587
rfemur -42.530245895089 2.422235000812039 24.321882322890463
rtibia 39.38942935663401
rfoot 1.4376328567356342 0.5322072967263987
rtoes -17.48603413236777
lowerback 13.291880175849242 -1.5114728975253313 -1.8640526733016636
upperback -1.866139162165331 -2.182452117119024 1.572227283394035
thorax -9.572252973247112 -0.898350959430893 3.2189994900178736
lowerneck -20.289825154889975 -2.838599955156746 -1.9804144269208834
upperneck 14.531542960809803 -3.8538498931721845 2.688674290928025
head 7.944655465835464 -1.63006787835369 0.7310174555263691
lclavicle -1.164537831330574e-15 -9.676755108855086e-16
lhumerus -35.42674335195344 -15.443326796923328 93.39595474876076
lradius 117.76214053525038
lwrist 36.49028682696215
lhand -23.817195615910112 1.2572863226390716
lfingers 7.125020000000056
lthumb 2.6531004821030253 31.15044118914424
rclavicle -1.164537831330574e-15 -9.676755108855086e-16
rhumerus -66.83126836376445 6.661463337937654 -96.6647407955254
rradius 111.40673508658399
rwrist -16.080522118886545
rhand -19.748150547453275 33.946502344837754
rfingers 7.125020000000056
rthumb 6.582191726390432 10.501483457497876
34
root -0.22971394332989248 18.725398818837895 7.569714308616614 6.561242538354545 -2.8972814607612234 0.9636043815856001
lfemur 14.930810172714413 -5.487254272259761 -28.562912349376603
ltibia 27.615394288815978
lfoot 31.72879563679982 -18.856340745804676
ltoes -14.614692150776747
rfemur -40.33702423273591 1.8898106381292124 24.3213617916974
rtibia 31.591787000611976
rfoot 3.0592619624190536 0.08084323690065798
rtoes -19.397338795155804
lowerback 13.194562430677172 -1.6802788079160753 -1.8477554171773314
upperback -1.804563814584954 -2.4244308508713543 1.443192873864062
thorax -9.371601905642432 -1.0193297860532389 3.1991646977080896
lowerneck -20.450301199133428 -2.8846637433937863 -2.0479158817458356
upperneck 14.496031486554546 -3.875495100928988 2.6924730111993416
head 7.967369710176887 -1.6497540129769688 0.736007267930174
lclavicle -7.855933486930713e-16 -6.742577025437686e-16
lhumerus -35.49207592187532 -15.750899565462044 93.48787269519318
lradius 118.20538620934317
lwrist 36.25057086913042
lhand -24.03371474062014 1.2590479332188966
lfingers 7.125020000000057
lthumb 2.444120061014737 31.16317517703509
rclavicle -7.855933486930713e-16 -6.742577025437686e-16
rhumerus -66.82250836241026 6.422659930361981 -96.30161073671405
rradius 112.9910303373619
rwrist -15.654149488577826
rhand -19.79874242850242 34.09221744356549
rfingers 7.125020000000057
rthumb 6.533274239238065 10.981004301129635
35
root -0.24972148994687593 18.67511948536589 8.28288794222345 6.14116944293249 -3.0114343183915806 1.2879136972522978
lfemur 13.881285841774858 -6.479955822632011 -29.27216587093316
ltibia 31.65186530709427
lfoot 30.715338390665654 -20.26776721316124
ltoes -12.300913324316383
rfemur -39.3862060466127 1.2194038658516326 24.185245538653394
rtibia 26.20877969315402
rfoot 4.058853722866708 -1.0486407312265147
rtoes -20.35210412397695
lowerback 13.283003912245219 -1.8205675852973067 -2.0889282985954374
upperback -1.6464029669916387 -2.6572611511471127 1.2414719979935105
thorax -9.285394311401308 -1.1302608324846783 3.0616193871132205
lowerneck -20.60972298095776 -3.0062124254287537 -2.156255593161612
upperneck 14.043029706680956 -4.015695480611404 2.668163829407225
head 7.845738396528145 -1.7173292175080626 0.7324627091881988
lclavicle -1.409524143755113e-15 -1.1573691154900592e-15
lhumerus -36.25347427598798 -16.216813210840733 93.29598161117491
lradius 116.05172941633059
lwrist 35.60467219591041
lhand -24.158039603703656 1.146766943315379
lfingers 7.125020000000056
lthumb 2.3241507143279723 31.056978974884533
rclavicle -1.409524143755113e-15 -1.1573691154900592e-15
rhumerus -67.02828769278939 5.086046254972446 -96.25238514614198
rradius 111.7439642232556
rwrist -15.64721128191767
rhand -19.934602158732403 33.57146726176059
rfingers 7.125020000000056
rthumb 6.402028748149077 10.973960508099504
